
<svg fill="#000000" version="1.1" id="Capa_1" xmlns="http://www.w3.org/2000/svg"
	 width="800px" height="800px" viewBox="0 0 26.514 26.515"
	 xml:space="preserve">
<g>
	<path d="M23.649,1.501l-0.002,23.514c0,0.56-0.312,1.072-0.809,1.331c-0.494,0.257-1.095,0.219-1.554-0.104l-8.028-5.618
		l-8.031,5.618c-0.257,0.182-0.56,0.271-0.86,0.271c-0.236,0-0.475-0.056-0.692-0.169c-0.495-0.259-0.808-0.771-0.808-1.331
		L2.868,1.5c0-0.829,0.672-1.5,1.5-1.5h2.451v13.258c0,0.828,0.672,1.5,1.5,1.5s1.5-0.672,1.5-1.5V0.001h12.33
		c0.396,0,0.779,0.158,1.061,0.439C23.492,0.721,23.649,1.103,23.649,1.501z"/>
</g>
</svg>