<svg xmlns="http://www.w3.org/2000/svg" xmlns:xlink="http://www.w3.org/1999/xlink" width="20" height="22" viewBox="0 0 20 22"><defs><clipPath id="a"><path d="M13,22H3a3,3,0,0,1-3-3V8a1,1,0,0,1,.386-.789l9-7a1,1,0,0,1,1.228,0l9,7A1,1,0,0,1,20,8V19a3,3,0,0,1-3,3Zm4-2a1,1,0,0,0,1-1V8.489L10,2.267,2,8.489V19a1,1,0,0,0,1,1H6V11a1,1,0,0,1,1-1h6a1,1,0,0,1,1,1v9Zm-5,0V12H8v8Z" fill="#fff"/></clipPath></defs><g opacity="0.65" clip-path="url(#a)"><g transform="translate(-2 -1)"><rect width="24" height="24" fill="#fff"/></g></g></svg>